<?xml version="1.0" standalone="no"?>
<!DOCTYPE svg PUBLIC "-//W3C//DTD SVG 20010904//EN"
 "http://www.w3.org/TR/2001/REC-SVG-20010904/DTD/svg10.dtd">
<svg version="1.0" xmlns="http://www.w3.org/2000/svg"
 width="282.000000pt" height="274.000000pt" viewBox="0 0 282.000000 274.000000"
 preserveAspectRatio="xMidYMid meet">

<g transform="translate(0.000000,274.000000) scale(0.100000,-0.100000)"
fill="#000" stroke="none">
<path d="M823 2253 c-62 -138 -68 -172 -68 -363 1 -164 3 -179 28 -249 46
-126 120 -243 211 -330 41 -41 49 -44 73 -35 22 7 29 17 31 42 3 28 -5 42 -48
89 -146 160 -209 326 -197 523 5 87 26 192 40 206 3 4 24 -9 45 -27 45 -38
343 -305 502 -449 58 -52 125 -112 149 -134 41 -36 42 -39 25 -50 -32 -19
-865 -454 -979 -511 -60 -30 -60 -30 -63 -78 -3 -46 -3 -47 27 -47 17 0 75 23
133 54 391 203 784 408 1012 526 170 88 181 92 229 87 42 -4 56 -10 84 -40 38
-42 50 -79 37 -116 -9 -24 -14 -26 -79 -29 l-70 -3 -34 -66 c-73 -140 -167
-239 -256 -269 -87 -30 -191 -1 -306 86 -28 21 -56 36 -63 34 -6 -3 -29 -30
-51 -62 -140 -198 -142 -202 -62 -201 52 0 52 0 95 59 l43 59 80 -42 c80 -42
82 -42 187 -42 93 0 114 3 157 24 86 42 167 129 259 279 l26 42 75 0 74 0 17
57 c11 38 15 78 12 124 -4 57 -11 76 -39 116 -67 94 -191 128 -298 82 -44 -18
-49 -24 -57 -64 l-9 -45 -166 148 c-91 81 -286 255 -434 387 -327 293 -329
294 -336 295 -3 0 -20 -30 -36 -67z"/>
</g>
</svg>
