
<svg xmlns="http://www.w3.org/2000/svg" width="376" height="365.333" fill="currentColor" version="1.0" viewBox="0 0 282 274">
  <path  fill="currentColor" d="M82.3 48.7c-6.2 13.8-6.8 17.2-6.8 36.3.1 16.4.3 17.9 2.8 24.9 4.6 12.6 12 24.3 21.1 33 4.1 4.1 4.9 4.4 7.3 3.5 2.2-.7 2.9-1.7 3.1-4.2.3-2.8-.5-4.2-4.8-8.9-14.6-16-20.9-32.6-19.7-52.3.5-8.7 2.6-19.2 4-20.6.3-.4 2.4.9 4.5 2.7 4.5 3.8 34.3 30.5 50.2 44.9 5.8 5.2 12.5 11.2 14.9 13.4 4.1 3.6 4.2 3.9 2.5 5-3.2 1.9-86.5 45.4-97.9 51.1-6 3-6 3-6.3 7.8-.3 4.6-.3 4.7 2.7 4.7 1.7 0 7.5-2.3 13.3-5.4 39.1-20.3 78.4-40.8 101.2-52.6 17-8.8 18.1-9.2 22.9-8.7 4.2.4 5.6 1 8.4 4 3.8 4.2 5 7.9 3.7 11.6-.9 2.4-1.4 2.6-7.9 2.9l-7 .3-3.4 6.6c-7.3 14-16.7 23.9-25.6 26.9-8.7 3-19.1.1-30.6-8.6-2.8-2.1-5.6-3.6-6.3-3.4-.6.3-2.9 3-5.1 6.2-14 19.8-14.2 20.2-6.2 20.1 5.2 0 5.2 0 9.5-5.9l4.3-5.9 8 4.2c8 4.2 8.2 4.2 18.7 4.2 9.3 0 11.4-.3 15.7-2.4 8.6-4.2 16.7-12.9 25.9-27.9l2.6-4.2h14.9l1.7-5.7c1.1-3.8 1.5-7.8 1.2-12.4-.4-5.7-1.1-7.6-3.9-11.6-6.7-9.4-19.1-12.8-29.8-8.2-4.4 1.8-4.9 2.4-5.7 6.4l-.9 4.5-16.6-14.8c-9.1-8.1-28.6-25.5-43.4-38.7C86.8 42.2 86.6 42.1 85.9 42c-.3 0-2 3-3.6 6.7z"/>
</svg>